<?xml version="1.0" encoding="UTF-8"?>
<svg width="44px" height="44px" viewBox="0 0 44 44" version="1.1" xmlns="http://www.w3.org/2000/svg" xmlns:xlink="http://www.w3.org/1999/xlink">
    <title>logo copy 4</title>
    <g id="Page-1" stroke="none" stroke-width="1" fill="none" fill-rule="evenodd">
        <g id="logo-copy-4" transform="translate(7.29, 7.29)" fill="#000000" fill-rule="nonzero">
            <path d="M29.0598458,0 C29.2089627,0 29.3298458,0.120883118 29.3298458,0.27 L29.3298458,9.99 C29.3298458,10.8152651 29.1496955,11.6305829 28.801967,12.3790354 L24.3122009,22.03848 L24.3122009,28.35 C24.3122009,28.4778145 24.2233888,28.5848858 24.1041094,28.6128691 L24.0422009,28.62 L13.2422009,28.62 C13.093084,28.62 12.9722009,28.4991169 12.9722009,28.35 L12.9722009,20.79 C12.9722009,19.9647349 13.1523512,19.1494171 13.5000656,18.4009951 L17.9898809,8.73504 L17.9898458,0.270001111 C17.9898453,0.142186269 18.0786574,0.0351144214 18.1979371,0.00713093126 L18.2598458,0 L29.0598458,0 Z M11.07,8.63999778 C11.2191169,8.63999778 11.34,8.76088089 11.34,8.90999778 L11.34,19.7099978 C11.34,19.8591147 11.2191169,19.9799978 11.07,19.9799978 L0.27,19.9799978 C0.120883118,19.9799978 5.68434189e-14,19.8591147 5.68434189e-14,19.7099978 L5.68434189e-14,8.90999778 C5.68434189e-14,8.76088089 0.120883118,8.63999778 0.27,8.63999778 L11.07,8.63999778 Z" id="Combined-Shape"></path>
        </g>
    </g>
</svg>